<svg xmlns="http://www.w3.org/2000/svg" viewBox="0 0 1600 1000" width="1600" height="1000">
<g stroke-linejoin="round" stroke-linecap="round">
  <rect x="110" y="470" width="140" height="152" rx="12" fill="#4A4942" stroke="#1B1E1B" stroke-width="13"/>
  <circle cx="180" cy="492" r="20" fill="#C9C8B6" stroke="#1B1E1B" stroke-width="9"/>
  <rect x="96" y="582" width="34" height="44" rx="8" fill="#4A4942" stroke="#1B1E1B" stroke-width="9"/>
  <rect x="252" y="588" width="1004" height="112" rx="16" fill="#CFCC50" stroke="#1B1E1B" stroke-width="13"/>
  <rect x="240" y="550" width="1028" height="50" rx="12" fill="#7D7F4B" stroke="#1B1E1B" stroke-width="9"/>
  <rect x="556" y="470" width="168" height="86" rx="12" fill="#4A4942" stroke="#1B1E1B" stroke-width="9"/>
  <rect x="292" y="696" width="20" height="180" rx="6" fill="#4A4942" stroke="#1B1E1B" stroke-width="9"/>
  <rect x="328" y="696" width="20" height="180" rx="6" fill="#4A4942" stroke="#1B1E1B" stroke-width="9"/>
  <rect x="414" y="696" width="20" height="180" rx="6" fill="#4A4942" stroke="#1B1E1B" stroke-width="9"/>
  <rect x="450" y="696" width="20" height="180" rx="6" fill="#4A4942" stroke="#1B1E1B" stroke-width="9"/>
  <rect x="536" y="696" width="20" height="180" rx="6" fill="#4A4942" stroke="#1B1E1B" stroke-width="9"/>
  <rect x="572" y="696" width="20" height="180" rx="6" fill="#4A4942" stroke="#1B1E1B" stroke-width="9"/>
  <rect x="658" y="696" width="20" height="180" rx="6" fill="#4A4942" stroke="#1B1E1B" stroke-width="9"/>
  <rect x="694" y="696" width="20" height="180" rx="6" fill="#4A4942" stroke="#1B1E1B" stroke-width="9"/>
  <rect x="780" y="696" width="20" height="180" rx="6" fill="#4A4942" stroke="#1B1E1B" stroke-width="9"/>
  <rect x="816" y="696" width="20" height="180" rx="6" fill="#4A4942" stroke="#1B1E1B" stroke-width="9"/>
  <rect x="902" y="696" width="20" height="180" rx="6" fill="#4A4942" stroke="#1B1E1B" stroke-width="9"/>
  <rect x="938" y="696" width="20" height="180" rx="6" fill="#4A4942" stroke="#1B1E1B" stroke-width="9"/>
  <rect x="1024" y="696" width="20" height="180" rx="6" fill="#4A4942" stroke="#1B1E1B" stroke-width="9"/>
  <rect x="1060" y="696" width="20" height="180" rx="6" fill="#4A4942" stroke="#1B1E1B" stroke-width="9"/>
  <rect x="1146" y="696" width="20" height="180" rx="6" fill="#4A4942" stroke="#1B1E1B" stroke-width="9"/>
  <rect x="1182" y="696" width="20" height="180" rx="6" fill="#4A4942" stroke="#1B1E1B" stroke-width="9"/>
  <rect x="1240" y="628" width="90" height="72" rx="14" fill="#4A4942" stroke="#1B1E1B" stroke-width="9"/>
  <circle cx="1382" cy="790" r="90" fill="#4A4942" stroke="#1B1E1B" stroke-width="13"/>
  <circle cx="1382" cy="790" r="30" fill="#6E6E60" stroke="#1B1E1B" stroke-width="9"/>
</g>
</svg>